2.8Hzhigh3min_grf.mot
version=1
nRows=15
nColumns 19
inDegrees=yes
endheader
time	1_ground_force_vx	1_ground_force_vy	1_ground_force_vz	1_ground_force_px	1_ground_force_py	1_ground_force_pz	1_ground_torque_x	1_ground_torque_y	1_ground_torque_z	2_ground_force_vx	2_ground_force_vy	2_ground_force_vz	2_ground_force_px	2_ground_force_py	2_ground_force_pz	2_ground_torque_x	2_ground_torque_y	2_ground_torque_z
            0.005000	           -2.212315	           13.175287	           -3.744153	           -0.242555	            0.005965	           -0.345549	            0.060180	           -0.358397	            0.101849	           -0.521374	           14.549039	           -0.792599	           -0.287001	            0.005351	           -0.670753	            0.003060	           -0.085396	            0.004652
            0.005500	           -2.487079	           12.814310	           -3.653305	           -0.246347	            0.005919	           -0.335047	            0.054187	           -0.279191	            0.079596	           -0.469104	           13.075184	           -0.563235	           -0.290196	            0.005310	           -0.662465	            0.002925	           -0.081522	            0.003512
            0.006000	           -2.531766	           12.091469	           -3.243580	           -0.247787	            0.005915	           -0.334223	            0.066675	           -0.318433	            0.085421	           -0.752239	           13.626949	           -0.655000	           -0.287874	            0.005378	           -0.678949	            0.004361	           -0.078994	            0.003797
            0.006500	           -2.576713	           11.549287	           -2.924793	           -0.243144	            0.005926	           -0.336553	            0.069060	           -0.309537	            0.078389	           -1.216168	           12.336889	           -0.847113	           -0.291802	            0.005345	           -0.673804	           -0.000394	            0.003997	           -0.000274
            0.007000	           -2.438304	           10.466539	           -2.654637	           -0.239711	            0.005904	           -0.331282	            0.069296	           -0.297458	            0.075445	           -1.259797	           11.416815	           -1.085019	           -0.285218	            0.005334	           -0.664013	            0.001907	           -0.017281	            0.001642
            0.007500	           -2.346324	           10.105633	           -2.564699	           -0.231911	            0.005949	           -0.341300	            0.067022	           -0.288665	            0.073260	           -1.348098	            9.942620	           -0.902523	           -0.232311	            0.006130	           -0.833667	           -1.689693	           -0.344452	           -0.547151
            0.008000	           -2.344551	            9.742152	           -1.878406	           -0.233013	            0.005581	           -0.255695	            0.939858	           -0.140821	            0.178997	           -1.205493	            9.390181	           -0.763770	           -0.232311	            0.006130	           -0.833667	           -1.727076	           -0.401169	           -0.585038
            0.008500	           -1.793653	            9.200282	           -1.606954	           -0.233013	            0.005581	           -0.255695	            0.665525	           -0.075585	            0.128241	           -1.392186	            9.205021	           -0.670491	           -0.232311	            0.006130	           -0.833667	           -1.520573	           -0.362612	           -0.584991
            0.009000	           -1.699672	            8.475501	           -0.739012	           -0.233013	            0.005581	           -0.255695	            0.722611	           -0.056853	            0.094519	           -1.254960	           10.126270	           -0.667265	           -0.283412	            0.005444	           -0.692961	            0.016469	           -0.132891	            0.008757
            0.009500	           -0.872644	            8.292249	           -0.008138	           -0.233013	            0.005581	           -0.255695	            0.597682	           -0.121175	            0.129745	           -1.198141	            7.364215	           -0.677141	           -0.232311	            0.006130	           -0.833667	           -1.182404	           -0.361660	           -0.509734
            0.010000	           -0.184104	            7.750209	            0.308828	           -0.233013	            0.005581	           -0.255695	            0.547035	           -0.250507	            0.215051	           -1.526713	            7.546844	           -0.582488	           -0.232311	            0.006130	           -0.833667	           -1.276425	           -0.333709	           -0.490743
            0.010500	            0.550588	            7.387853	            0.764021	           -0.233013	            0.005581	           -0.255695	            0.546378	           -0.259074	            0.171111	           -1.664125	            6.627101	           -1.008067	           -0.232311	            0.006130	           -0.833667	           -1.182293	           -0.390086	           -0.490985
            0.011000	            0.641055	            7.209768	            0.258605	           -0.233013	            0.005581	           -0.255695	            0.549183	           -0.203509	            0.156461	           -1.851066	            6.443950	           -1.477925	           -0.232311	            0.006130	           -0.833667	           -0.975272	           -0.484203	           -0.397159
            0.011500	            0.457701	            6.488866	            0.210113	           -0.233013	            0.005581	           -0.255695	            0.551629	           -0.203675	            0.167459	           -2.037698	            6.258288	           -1.243862	           -0.232311	            0.006130	           -0.833667	           -1.012953	           -0.455913	           -0.415892
            0.012000	           -0.093194	            5.769270	           -0.158461	           -0.233013	            0.005581	           -0.255695	            0.436262	           -0.148503	            0.144550	           -1.802098	            5.890670	           -1.198348	           -0.232311	            0.006130	           -0.833667	           -0.918932	           -0.483865	           -0.434883
